<?xml version="1.0" standalone="no"?>
<!DOCTYPE svg PUBLIC "-//W3C//DTD SVG 20010904//EN"
 "http://www.w3.org/TR/2001/REC-SVG-20010904/DTD/svg10.dtd">
<svg xmlns="http://www.w3.org/2000/svg"
  viewBox="0 0 295.000000 336.000000"
 >

<g transform="translate(0.000000,336.000000) scale(0.100000,-0.100000)"
fill="#000" stroke="none">
<path d="M1390 3154 c-223 -48 -413 -241 -451 -458 -31 -179 39 -381 187 -545
32 -35 60 -59 62 -52 2 6 -20 37 -48 68 -100 113 -172 262 -185 389 -29 266
175 523 460 581 249 50 488 -112 569 -386 51 -175 -24 -350 -164 -381 -130
-29 -287 50 -266 133 12 48 48 62 163 63 77 1 108 5 127 18 32 20 32 31 2 61
-17 17 -40 25 -82 30 -175 20 -252 68 -195 119 23 20 79 14 88 -10 7 -18 23
-18 23 1 0 18 -50 45 -84 45 -22 0 -76 -49 -76 -69 0 -40 88 -84 205 -101 88
-13 115 -24 115 -44 0 -21 -24 -26 -121 -26 -133 0 -189 -32 -189 -106 0 -76
103 -137 230 -138 111 -1 178 41 231 144 31 62 38 185 14 266 -44 155 -162
303 -285 362 -109 51 -210 62 -330 36z"/>
<path d="M1230 3000 c-8 -5 -11 -12 -8 -16 10 -9 38 3 38 16 0 12 -10 13 -30
0z"/>
<path d="M1151 2947 c-6 -8 -8 -17 -4 -20 7 -8 33 11 33 24 0 13 -16 11 -29
-4z"/>
<path d="M1090 2875 c-18 -21 -3 -32 16 -13 10 9 12 18 6 22 -5 3 -15 -1 -22
-9z"/>
<path d="M1043 2785 c-8 -22 6 -33 17 -15 13 20 12 30 0 30 -6 0 -13 -7 -17
-15z"/>
<path d="M1247 2536 c-3 -19 -2 -50 3 -70 17 -78 56 -109 209 -170 110 -44
158 -75 224 -145 63 -67 87 -120 87 -197 0 -108 -77 -222 -204 -299 -36 -22
-65 -46 -66 -53 0 -24 101 40 172 109 83 81 118 151 118 238 0 90 -24 144 -98
223 -69 72 -123 106 -248 153 -135 51 -174 93 -174 189 0 62 -14 76 -23 22z"/>
<path d="M1793 2163 c9 -9 19 -14 23 -11 10 10 -6 28 -24 28 -15 0 -15 -1 1
-17z"/>
<path d="M1840 2086 c0 -15 18 -31 26 -23 7 7 -7 37 -17 37 -5 0 -9 -6 -9 -14z"/>
<path d="M1866 2001 c-4 -6 -3 -19 3 -28 9 -17 10 -17 17 0 8 21 -10 45 -20
28z"/>
<path d="M1390 1981 c0 -5 16 -19 35 -31 68 -42 94 -109 60 -157 -22 -31 -71
-58 -150 -84 -168 -53 -214 -100 -165 -169 23 -32 55 -49 208 -106 121 -45
174 -76 193 -111 17 -32 -5 -60 -101 -128 -58 -40 -86 -67 -96 -91 -14 -34
-11 -60 5 -49 5 2 11 18 14 34 5 23 24 43 86 86 111 77 134 110 115 160 -12
30 -95 77 -217 121 -260 96 -271 152 -45 229 139 48 188 88 188 154 0 50 -20
84 -74 122 -41 30 -56 35 -56 20z"/>
<path d="M1865 1897 c-4 -10 -5 -21 -1 -24 10 -10 18 4 13 24 -4 17 -4 17 -12
0z"/>
<path d="M1840 1805 c-9 -11 -10 -19 -3 -26 8 -8 13 -5 18 11 9 28 2 35 -15
15z"/>
<path d="M1781 1717 c-6 -8 -8 -17 -4 -20 7 -8 33 11 33 24 0 13 -16 11 -29
-4z"/>
<path d="M1715 1660 c-3 -5 1 -10 10 -10 9 0 13 5 10 10 -3 6 -8 10 -10 10 -2
0 -7 -4 -10 -10z"/>
<path d="M1245 1326 c-31 -13 -55 -51 -55 -86 0 -11 5 -20 10 -20 6 0 10 10
10 23 1 27 17 50 48 66 29 15 56 7 82 -26 32 -41 26 -73 -25 -123 -56 -55 -59
-85 -11 -138 44 -47 60 -35 17 13 -17 20 -31 44 -31 53 0 10 18 36 41 57 22
22 45 50 50 63 12 32 -15 94 -50 115 -34 20 -46 21 -86 3z"/>
<path d="M1424 976 c-67 -29 -85 -109 -38 -165 63 -75 184 -30 184 69 0 45
-23 78 -66 96 -40 17 -41 17 -80 0z m101 -41 c32 -31 32 -75 1 -111 -70 -83
-192 24 -125 110 28 36 89 37 124 1z"/>
<path d="M104 553 c6 -29 66 -418 66 -428 0 -3 25 -5 55 -5 32 0 55 4 55 10 0
15 59 399 65 428 5 19 1 22 -28 22 l-34 0 -23 -167 c-13 -93 -26 -176 -29
-186 -4 -10 -17 58 -30 150 -29 214 -25 203 -67 203 -33 0 -35 -2 -30 -27z"/>
<path d="M460 378 c-17 -112 -34 -215 -37 -230 -5 -26 -3 -28 26 -28 31 0 34
4 43 65 3 17 11 20 48 20 37 0 45 -3 48 -20 9 -62 11 -65 48 -65 29 0 34 3 31
18 -3 9 -20 113 -38 230 l-33 212 -52 0 -51 0 -33 -202z m109 -85 c1 -30 -2
-33 -29 -33 -26 0 -30 4 -30 26 0 33 19 165 27 184 6 16 31 -120 32 -177z"/>
<path d="M780 351 l0 -231 30 0 30 0 0 84 0 84 46 7 c28 4 56 16 69 30 45 44
44 171 0 223 -20 24 -31 27 -99 30 l-76 4 0 -231z m134 143 c10 -25 7 -93 -4
-115 -7 -12 -21 -19 -40 -19 l-30 0 0 75 0 75 34 0 c22 0 36 -6 40 -16z"/>
<path d="M1090 350 l0 -230 101 0 100 0 -3 33 c-3 32 -3 32 -65 35 l-63 3 0
64 0 65 50 0 c49 0 50 1 50 29 0 28 -2 30 -47 33 l-48 3 -3 62 -3 62 63 3 63
3 3 33 3 32 -100 0 -101 0 0 -230z"/>
<path d="M1580 351 l0 -231 30 0 30 0 1 153 1 152 26 -152 25 -153 32 0 33 0
17 113 c33 223 33 222 34 50 l1 -163 35 0 35 0 0 230 0 230 -49 0 c-57 0 -52
11 -76 -160 -25 -181 -26 -181 -54 -5 l-26 160 -47 3 -48 3 0 -230z"/>
<path d="M2055 568 c-2 -7 -18 -105 -35 -218 -17 -113 -33 -211 -35 -217 -3
-9 7 -13 30 -13 30 0 35 4 35 23 0 55 10 67 56 67 l43 0 7 -45 c6 -43 8 -45
40 -45 19 0 34 5 34 10 0 6 -16 107 -35 226 -19 118 -35 217 -35 220 0 11
-101 3 -105 -8z m64 -160 c7 -46 14 -98 18 -115 5 -32 4 -33 -31 -33 -42 0
-40 -6 -21 120 8 52 15 98 15 103 0 4 2 7 4 7 2 0 9 -37 15 -82z"/>
<path d="M2320 545 c0 -33 2 -35 35 -35 l35 0 0 -195 0 -195 35 0 35 0 0 195
0 195 40 0 c39 0 40 1 40 35 l0 35 -110 0 -110 0 0 -35z"/>
<path d="M2640 350 l0 -230 101 0 100 0 -3 33 c-3 32 -3 32 -65 35 l-63 3 0
64 0 65 50 0 c49 0 50 1 50 29 0 28 -2 30 -47 33 l-48 3 -3 62 -3 62 63 3 63
3 3 33 3 32 -100 0 -101 0 0 -230z"/>
</g>
</svg>
